<?xml version="1.0" encoding="UTF-8"?>
<svg xmlns="http://www.w3.org/2000/svg" width="73" height="74" viewBox="0 0 73 74" fill="none">
  <path d="M36.1431 13.0698C23.3623 13.0698 12.9996 23.6239 12.9996 36.6409C13.0036 36.7059 13.0196 36.7709 13.0355 36.8319C13.3228 49.5887 23.5498 59.8462 36.147 59.8543C48.9278 59.8543 59.2905 49.3002 59.2905 36.2832C59.2865 36.2182 59.2705 36.1532 59.2546 36.0922C58.9673 23.3354 48.7403 13.0779 36.1431 13.0698ZM36.4463 58.4441C24.5953 58.6067 14.8551 48.9547 14.6915 36.8847C14.6915 36.6856 14.6915 36.4864 14.6915 36.2873C14.6915 36.2507 14.6795 36.2142 14.6715 36.1776C14.7553 24.3148 24.1364 14.6466 35.8358 14.484C47.6868 14.3215 57.427 23.9734 57.5906 36.0435C57.5906 36.2426 57.5906 36.4417 57.5906 36.6409C57.5906 36.6774 57.6026 36.714 57.6106 36.7506C57.5268 48.6133 48.1457 58.2816 36.4463 58.4441Z" fill="white"></path>
  <path d="M72.0911 31.3008C72.0313 30.8944 71.6881 30.5815 71.2731 30.5774H67.0395C66.2135 26.3305 64.5336 22.3031 62.1075 18.7472L65.184 15.6138C65.5152 15.2846 65.5192 14.7441 65.196 14.4068C65.192 14.4028 65.188 14.3987 65.184 14.3946L57.9617 7.03882C57.6265 6.70964 57.0998 6.70964 56.7646 7.03882L53.5445 10.3185C50.065 8.01824 46.1585 6.46986 42.0685 5.76679V0.853439C42.0685 0.382017 41.6974 0.00406398 41.2346 0H31.0235C30.5606 0 30.1856 0.382017 30.1856 0.853439V6.07972C26.2831 6.95754 22.5881 8.61565 19.3161 10.9565L15.5015 7.05101C15.1663 6.72183 14.6396 6.72183 14.3044 7.05101L7.08205 14.4068C6.75086 14.736 6.74687 15.2765 7.07008 15.6138C7.07407 15.6179 7.07806 15.622 7.08205 15.626L11.0723 19.6534C8.95746 22.9778 7.48905 26.6882 6.74686 30.5774H1.01288C0.550012 30.5774 0.174927 30.9594 0.174927 31.4308V41.8346C0.174927 41.9037 0.182912 41.9688 0.198873 42.0297C0.258727 42.4361 0.601883 42.749 1.01687 42.7531H5.25052C6.0765 47 7.7564 51.0274 10.1825 54.5833L7.10599 57.7167C6.7748 58.0459 6.77081 58.5864 7.09402 58.9237C7.09801 58.9277 7.102 58.9318 7.10599 58.9359L14.3283 66.2917C14.6635 66.6209 15.1902 66.6209 15.5254 66.2917L18.7455 63.0121C22.225 65.3123 26.1315 66.8606 30.2215 67.5637V72.4771C30.2215 72.9485 30.5926 73.3264 31.0554 73.3305H41.2665C41.7294 73.3305 42.1044 72.9485 42.1044 72.4771V67.2508C46.0069 66.373 49.7019 64.7149 52.9739 62.374L56.7885 66.2795C57.1237 66.6087 57.6504 66.6087 57.9856 66.2795L65.208 58.9237C65.5392 58.5945 65.5431 58.054 65.2199 57.7167C65.2159 57.7126 65.212 57.7085 65.208 57.7045L61.2177 53.6771C63.3325 50.3527 64.801 46.6423 65.5431 42.7531H71.2771C71.74 42.7531 72.1151 42.3711 72.1151 41.8997V31.4959C72.1151 31.4268 72.1071 31.3618 72.0911 31.3008ZM70.4432 41.0503H64.8568C64.4419 41.0381 64.0827 41.3388 64.0109 41.7574C63.3246 45.8946 61.7724 49.8366 59.458 53.3073C59.2346 53.6446 59.2745 54.0998 59.5578 54.3883L63.4203 58.3182L57.3791 64.4913L53.6363 60.6712C53.345 60.3745 52.8821 60.338 52.5509 60.5859C49.1472 63.1299 45.2368 64.8815 41.0949 65.7105C40.7039 65.7878 40.4206 66.1373 40.4206 66.5437V71.6277H31.8775V66.8241C31.8775 66.4014 31.5742 66.0438 31.1632 65.9828C26.8338 65.3448 22.7039 63.7111 19.0927 61.1995C18.7615 60.9719 18.3146 61.0126 18.0313 61.3011L14.9309 64.4913L8.88965 58.3344L11.8783 55.2946C12.1696 54.9979 12.2055 54.5265 11.9621 54.1892C9.31661 50.5112 7.54095 46.2644 6.77482 41.7737C6.75487 41.6477 6.70299 41.5339 6.63117 41.4323C6.49949 41.1803 6.2521 41.0015 5.95283 40.9812C5.91293 40.9812 5.87701 40.9812 5.83711 40.9812H1.85883V37.092C1.86282 37.0229 1.85883 36.9579 1.84686 36.8928V32.2802H7.43321C7.84819 32.2924 8.20732 31.9917 8.27914 31.5731C8.96547 27.436 10.5177 23.4939 12.832 20.0233C13.0555 19.6859 13.0156 19.2308 12.7323 18.9422L8.8697 15.0124L14.9109 8.83917L18.6538 12.6593C18.9451 12.956 19.4079 12.9926 19.7391 12.7447C23.1428 10.2006 27.0533 8.44903 31.1951 7.61998C31.5862 7.54276 31.8695 7.19326 31.8695 6.78687V1.70282H40.4126V6.50645C40.4126 6.9291 40.7159 7.28673 41.1268 7.34769C45.4563 7.98574 49.5862 9.61946 53.1973 12.131C53.5285 12.3586 53.9754 12.3179 54.2587 12.0294L57.3592 8.83917L63.4004 14.9961L60.4117 18.036C60.1204 18.3326 60.0845 18.8041 60.3279 19.1414C62.9734 22.8193 64.7491 27.0661 65.5152 31.5568C65.5352 31.6828 65.5871 31.7966 65.6589 31.8982C65.7906 32.1502 66.0379 32.329 66.3372 32.3493C66.3771 32.3493 66.413 32.3493 66.4529 32.3493H70.4312V36.2385C70.4272 36.3076 70.4312 36.3727 70.4432 36.4377V41.0503Z" fill="white"></path>
  <path d="M36.2069 23.2297C28.9766 23.2297 23.0909 29.159 23.0909 36.4458C23.0909 43.7325 28.9766 49.6618 36.2069 49.6618C43.4372 49.6618 49.3228 43.7325 49.3228 36.4458C49.3228 29.159 43.4372 23.2297 36.2069 23.2297ZM36.2069 48.0322C29.8544 48.0322 24.687 42.8344 24.687 36.4417C24.687 30.0491 29.8544 24.8512 36.2069 24.8512C42.5594 24.8512 47.7267 30.0491 47.7267 36.4417C47.7267 42.8344 42.5594 48.0322 36.2069 48.0322Z" fill="white"></path>
</svg>
