<?xml version="1.0" encoding="UTF-8"?>
<svg xmlns="http://www.w3.org/2000/svg" width="87" height="68" viewBox="0 0 87 68" fill="none">
  <g clip-path="url(#clip0_12_3970)">
    <path d="M86.1575 0H0.838506C0.377127 0 0 0.376266 0 0.83659V21.6993C0 21.6993 0 21.7113 0 21.7153C0 21.7193 0 21.7273 0 21.7313V42.5941C0 43.0544 0.377127 43.4267 0.838506 43.4307H34.2142C34.6837 44.8757 35.7709 49.615 33.4279 57.8288H22.8041C22.3428 57.8288 21.9656 58.2011 21.9616 58.6614V67.1594C21.9616 67.6237 22.3388 68 22.8041 68H64.1918C64.6572 68 65.0344 67.6237 65.0344 67.1594V58.6654C65.0344 58.2051 64.6572 57.8288 64.1958 57.8288H53.5721C51.2451 49.6711 52.3204 44.8917 52.7858 43.4307H86.1575C86.6229 43.4307 86.996 43.0584 87 42.5941V0.83659C87 0.372263 86.6229 0 86.1575 0ZM85.319 20.8787H71.2128V1.67718H85.319V20.8787ZM52.2441 41.7535C52.2441 41.7535 52.2281 41.7535 52.2201 41.7535H44.4127V22.5519H69.5358V41.7535H52.2481H52.2441ZM17.6247 41.7535V22.5519H42.7277V41.7535H17.6247ZM17.6247 20.8787V1.67718H42.7277V20.8787H17.6247ZM44.4087 20.8787V1.67718H69.5318V20.8787H44.4087ZM15.9436 1.67718V20.8787H1.68102V1.67718H15.9436ZM1.68102 22.5519H15.9436V41.7535H1.68102V22.5519ZM63.3533 66.3268H23.6346V59.502H63.3533V66.3268ZM51.8269 57.8288H35.1691C37.2473 50.2635 36.5292 45.5001 35.9675 43.4307H51.0325C50.4668 45.5001 49.7527 50.2635 51.8309 57.8288H51.8269ZM71.2128 41.7535V22.5519H85.319V41.7535H71.2128Z" fill="white"></path>
  </g>
  <defs>
    <clipPath id="clip0_12_3970">
      <rect width="87" height="68" fill="white"></rect>
    </clipPath>
  </defs>
</svg>
